<svg width="60" height="60" viewBox="0 0 60 60" fill="none" xmlns="http://www.w3.org/2000/svg">
<g clip-path="url(#clip0_193_1569)">
<path d="M59.0582 13.5499C59.0798 13.6298 59.091 13.7121 59.091 13.7948V26.6512C59.091 26.9871 58.9113 27.2973 58.62 27.4644L47.8294 33.677V45.9908C47.8294 46.326 47.6513 46.6353 47.3607 46.804L24.8362 59.7705C24.7847 59.7998 24.7284 59.8186 24.6722 59.8385C24.6511 59.8455 24.6312 59.8584 24.6089 59.8643C24.4514 59.9058 24.2859 59.9058 24.1285 59.8643C24.1027 59.8573 24.0793 59.8432 24.0547 59.8338C24.0031 59.8151 23.9492 59.7987 23.9 59.7705L1.38022 46.804C1.08904 46.6367 0.90918 46.3266 0.90918 45.9908V7.42168C0.90918 7.33731 0.920897 7.25529 0.941989 7.17561C0.949019 7.14866 0.965423 7.12406 0.974797 7.09711C0.992374 7.04789 1.00878 6.99751 1.03456 6.95181C1.05213 6.92135 1.07791 6.89674 1.099 6.86862C1.12595 6.83112 1.15056 6.79245 1.1822 6.75964C1.20915 6.73269 1.2443 6.71277 1.27476 6.68934C1.30874 6.66122 1.33921 6.63075 1.37788 6.60849H1.37905L12.6395 0.125226C12.9297 -0.0417419 13.2868 -0.0417419 13.5769 0.125226L24.8374 6.60849H24.8397C24.8772 6.63192 24.9089 6.66122 24.9428 6.68817C24.9733 6.7116 25.0073 6.73269 25.0342 6.75847C25.067 6.79245 25.0905 6.83112 25.1186 6.86862C25.1385 6.89674 25.1655 6.92135 25.1819 6.95181C25.2088 6.99868 25.2241 7.04789 25.2428 7.09711C25.2522 7.12406 25.2686 7.14866 25.2756 7.17678C25.2972 7.25664 25.3082 7.33897 25.3084 7.42168V31.5116L34.6918 26.1087V13.7936C34.6918 13.7116 34.7035 13.6284 34.7246 13.5499C34.7328 13.5218 34.748 13.4972 34.7574 13.4702C34.7761 13.421 34.7925 13.3706 34.8183 13.3249C34.8359 13.2945 34.8617 13.2699 34.8816 13.2417C34.9097 13.2042 34.9331 13.1656 34.9659 13.1328C34.9929 13.1058 35.0269 13.0859 35.0573 13.0625C35.0925 13.0343 35.123 13.0039 35.1604 12.9816H35.1616L46.4233 6.49835C46.7134 6.33114 47.0706 6.33114 47.3607 6.49835L58.6211 12.9816C58.661 13.005 58.6914 13.0343 58.7266 13.0613C58.7559 13.0847 58.7899 13.1058 58.8168 13.1316C58.8496 13.1656 58.8731 13.2042 58.9012 13.2417C58.9223 13.2699 58.948 13.2945 58.9644 13.3249C58.9914 13.3706 59.0066 13.421 59.0254 13.4702C59.0359 13.4972 59.0512 13.5218 59.0582 13.5499ZM57.2139 26.1087V15.4177L53.2733 17.6862L47.8294 20.8206V31.5116L57.215 26.1087H57.2139ZM45.9534 45.4483V34.7503L40.5985 37.8085L25.3072 46.5357V57.3345L45.9534 45.4483ZM2.78631 9.04455V45.4483L23.4301 57.3333V46.5369L12.6454 40.4332L12.6419 40.4309L12.6372 40.4286C12.6008 40.4075 12.5704 40.377 12.5364 40.3512C12.5071 40.3278 12.4731 40.309 12.4474 40.2833L12.445 40.2797C12.4145 40.2505 12.3935 40.2141 12.3677 40.1813C12.3442 40.1497 12.3161 40.1227 12.2974 40.0899L12.2962 40.0864C12.2751 40.0513 12.2622 40.0091 12.247 39.9692C12.2317 39.9341 12.2118 39.9013 12.2025 39.8638V39.8626C12.1907 39.8181 12.1884 39.7712 12.1837 39.7255C12.179 39.6904 12.1696 39.6552 12.1696 39.6201V39.6177V14.4475L6.72689 11.3119L2.78631 9.04572V9.04455ZM13.1094 2.02111L3.72723 7.42168L13.107 12.8223L22.488 7.42051L13.107 2.02111H13.1094ZM17.9885 35.7252L23.4313 32.5919V9.04455L19.4907 11.313L14.0468 14.4475V37.9948L17.9885 35.7252ZM46.892 8.39423L37.511 13.7948L46.892 19.1954L56.2718 13.7936L46.892 8.39423ZM45.9534 20.8206L40.5095 17.6862L36.5689 15.4177V26.1087L42.0116 29.2419L45.9534 31.5116V20.8206ZM24.3675 44.9128L38.1273 37.0574L45.0055 33.1321L35.6315 27.735L24.8386 33.9488L15.0018 39.6119L24.3675 44.9128Z" fill="#FF2D20"/>
</g>
<defs>
<clipPath id="clip0_193_1569">
<rect width="60" height="60" fill="white"/>
</clipPath>
</defs>
</svg>
