<svg width="60" height="60" viewBox="0 0 60 60" fill="none" xmlns="http://www.w3.org/2000/svg">
<path d="M31.1628 56.25L29.7547 55.7831C29.7547 55.7831 29.9422 48.6581 27.364 48.1575C25.6765 46.1925 27.6134 -35.7319 33.7822 47.8781C32.6118 48.4718 31.7162 49.495 31.2828 50.7337C31.0505 52.5632 31.0103 54.4121 31.1628 56.25Z" fill="url(#paint0_linear_193_1563)"/>
<path d="M31.9237 49.367C35.673 46.5447 38.5442 42.7163 40.2037 38.3267C41.8633 33.9372 42.243 29.1669 41.2987 24.5701C38.5425 12.4107 32.0156 8.41321 31.3125 6.88696C30.7059 5.93658 30.188 4.93234 29.7656 3.88696L30.285 37.7663C30.285 37.7663 29.2087 48.1201 31.9237 49.367Z" fill="url(#paint1_linear_193_1563)"/>
<path d="M29.0381 49.8169C29.0381 49.8169 17.5612 42 18.225 28.1719C18.2869 24.0031 19.2427 19.8961 21.0279 16.1284C22.8131 12.3607 25.3861 9.01996 28.5731 6.33188C28.9455 6.01546 29.2414 5.61877 29.4386 5.17159C29.6357 4.72441 29.7289 4.23838 29.7112 3.75C30.4256 5.2875 30.3094 26.7056 30.3844 29.2106C30.675 38.955 29.8425 47.9775 29.0381 49.8169Z" fill="url(#paint2_linear_193_1563)"/>
<defs>
<linearGradient id="paint0_linear_193_1563" x1="21.6971" y1="30.473" x2="37.8815" y2="35.9651" gradientUnits="userSpaceOnUse">
<stop offset="0.231" stop-color="#999875"/>
<stop offset="0.563" stop-color="#9B9977"/>
<stop offset="0.683" stop-color="#A09F7E"/>
<stop offset="0.768" stop-color="#A9A889"/>
<stop offset="0.837" stop-color="#B7B69A"/>
<stop offset="0.896" stop-color="#C9C7B0"/>
<stop offset="0.948" stop-color="#DEDDCB"/>
<stop offset="0.994" stop-color="#F8F6EB"/>
<stop offset="1" stop-color="#FBF9EF"/>
</linearGradient>
<linearGradient id="paint1_linear_193_1563" x1="27.6318" y1="3.64487" x2="34.7868" y2="48.3241" gradientUnits="userSpaceOnUse">
<stop stop-color="#48A547"/>
<stop offset="1" stop-color="#3F9143"/>
</linearGradient>
<linearGradient id="paint2_linear_193_1563" x1="17.2377" y1="29.5407" x2="36.4389" y2="23.1102" gradientUnits="userSpaceOnUse">
<stop stop-color="#41A247"/>
<stop offset="0.352" stop-color="#4BA74B"/>
<stop offset="0.956" stop-color="#67B554"/>
<stop offset="1" stop-color="#69B655"/>
</linearGradient>
</defs>
</svg>
