<svg width="18" height="17" viewBox="0 0 18 17" fill="none" xmlns="http://www.w3.org/2000/svg">
<g clip-path="url(#clip0_193_1155)">
<path d="M3.97246 5.27805H0.463867V16.4571H3.97246V5.27805Z" fill="white" fill-opacity="0.91"/>
<path d="M2.14453 0C0.850781 0 0 0.833008 0 1.93902C0 3.02403 0.822656 3.87803 2.09531 3.87803H2.12344C3.44531 3.87803 4.26797 3.01703 4.26094 1.93902C4.23281 0.833008 3.43828 0 2.14453 0Z" fill="white" fill-opacity="0.91"/>
<path d="M13.5564 5.17303C11.5455 5.17303 10.2869 6.26504 10.0549 7.03505V5.27804H6.11035C6.15957 6.20904 6.11035 16.4571 6.11035 16.4571H10.0549V10.4161C10.0549 10.0731 10.0408 9.73708 10.1393 9.49907C10.4064 8.82707 10.99 8.12706 12.0377 8.12706C13.4088 8.12706 14.0275 9.16307 14.0275 10.6751V16.4571H18.0072V10.2411C18.0072 6.78305 16.0525 5.17303 13.5564 5.17303Z" fill="white" fill-opacity="0.91"/>
</g>
<defs>
<clipPath id="clip0_193_1155">
<rect width="18" height="16.4571" fill="white"/>
</clipPath>
</defs>
</svg>
