<svg width="24" height="24" viewBox="0 0 24 24" fill="none" xmlns="http://www.w3.org/2000/svg">
<path d="M11.9746 15.025C11.1413 15.025 10.4329 14.7333 9.84961 14.15C9.26628 13.5667 8.97461 12.8583 8.97461 12.025C8.97461 11.1917 9.26628 10.4833 9.84961 9.9C10.4329 9.31667 11.1413 9.025 11.9746 9.025C12.8079 9.025 13.5163 9.31667 14.0996 9.9C14.6829 10.4833 14.9746 11.1917 14.9746 12.025C14.9746 12.8583 14.6829 13.5667 14.0996 14.15C13.5163 14.7333 12.8079 15.025 11.9746 15.025ZM11.9746 22L7.72461 17.75L9.14961 16.325L11.9996 19.175L14.8246 16.35L16.2246 17.75L11.9746 22ZM6.22461 16.275L1.97461 12.025L6.22461 7.775L7.64961 9.2L4.79961 12.05L7.62461 14.875L6.22461 16.275ZM9.12461 7.65L7.72461 6.25L11.9746 2L16.2246 6.25L14.7996 7.675L11.9496 4.825L9.12461 7.65ZM17.7246 16.275L16.2996 14.85L19.1496 12L16.3246 9.175L17.7246 7.775L21.9746 12.025L17.7246 16.275Z" fill="white" fill-opacity="0.64"/>
</svg>
