<svg width="18" height="18" viewBox="0 0 18 18" fill="none" xmlns="http://www.w3.org/2000/svg">
<path d="M9.36916 0.578821C10.29 0.564758 11.204 0.572071 12.1175 0.564758C12.1479 1.7072 12.6114 2.73545 13.3488 3.49707L13.3477 3.49595C14.1414 4.21088 15.1742 4.67438 16.3127 4.75313L16.3284 4.75426V7.58701C15.2529 7.56001 14.2415 7.31195 13.3297 6.88557L13.3758 6.9047C12.9348 6.69263 12.5619 6.47495 12.2075 6.23195L12.2368 6.25107C12.23 8.30363 12.2435 10.3562 12.2227 12.4014C12.1648 13.4438 11.8183 14.3944 11.2625 15.1881L11.2738 15.1706C10.3445 16.5015 8.83928 17.3751 7.12759 17.4268H7.11972C7.05053 17.4302 6.96897 17.4319 6.88684 17.4319C5.91372 17.4319 5.00416 17.1608 4.22903 16.6899L4.25153 16.7029C2.84078 15.8541 1.86766 14.4017 1.68766 12.7125L1.68541 12.6894C1.67134 12.3379 1.66459 11.9863 1.67866 11.6421C1.95428 8.95389 4.20653 6.87432 6.94422 6.87432C7.25191 6.87432 7.55341 6.90076 7.84647 6.95082L7.81497 6.94632C7.82903 7.98638 7.78684 9.02701 7.78684 10.0671C7.54891 9.98101 7.27441 9.93095 6.98809 9.93095C5.93734 9.93095 5.04353 10.6026 4.71278 11.5403L4.70772 11.5571C4.63291 11.7973 4.58959 12.0735 4.58959 12.3593C4.58959 12.4751 4.59691 12.5899 4.61041 12.7024L4.60928 12.6889C4.79603 13.8398 5.78266 14.7083 6.97234 14.7083C7.00666 14.7083 7.04041 14.7077 7.07416 14.706H7.06909C7.89203 14.6813 8.60641 14.2386 9.01028 13.5844L9.01591 13.5743C9.16609 13.365 9.26903 13.1119 9.30334 12.8368L9.30391 12.8289C9.37422 11.5706 9.34609 10.3196 9.35284 9.06132C9.35959 6.22857 9.34609 3.40257 9.36691 0.577133L9.36916 0.578821Z" fill="white"/>
</svg>
