<svg width="18" height="18" viewBox="0 0 18 18" fill="none" xmlns="http://www.w3.org/2000/svg">
<g clip-path="url(#clip0_193_1160)">
<path d="M12.8478 10.6763C12.634 10.575 11.6103 10.0688 11.419 9.99001C11.2278 9.91126 11.0928 9.88876 10.9465 10.1025C10.8003 10.3163 10.4065 10.7775 10.2828 10.9238C10.159 11.07 10.0465 11.0813 9.83275 10.9238C9.21881 10.6774 8.6518 10.3273 8.1565 9.88876C7.70814 9.46662 7.32855 8.97695 7.0315 8.43751C6.90775 8.23501 7.0315 8.12251 7.1215 8.01001C7.2115 7.89751 7.324 7.77376 7.4365 7.65001C7.51877 7.54299 7.58684 7.42576 7.639 7.30126C7.66691 7.24336 7.68141 7.17991 7.68141 7.11564C7.68141 7.05136 7.66691 6.98791 7.639 6.93001C7.639 6.82876 7.1665 5.80501 6.9865 5.38876C6.8065 4.97251 6.649 5.02876 6.52525 5.02876H6.07525C5.86089 5.03712 5.65859 5.13017 5.51275 5.28751C5.27736 5.51214 5.0909 5.78298 4.96507 6.08304C4.83923 6.3831 4.77674 6.70592 4.7815 7.03126C4.83905 7.82999 5.13274 8.59358 5.62525 9.22501C6.52905 10.5676 7.76553 11.6529 9.214 12.375C9.709 12.5888 10.0915 12.7125 10.3953 12.8138C10.8218 12.9427 11.2726 12.9697 11.7115 12.8925C12.003 12.8334 12.2792 12.715 12.523 12.5447C12.7669 12.3744 12.9731 12.1558 13.129 11.9025C13.2587 11.5897 13.3015 11.2476 13.2528 10.9125C13.1965 10.8338 13.0615 10.7775 12.8478 10.6763Z" fill="white" fill-opacity="0.91"/>
<path d="M14.9516 3.01501C14.1735 2.22963 13.2461 1.608 12.224 1.18679C11.2019 0.765578 10.1058 0.553312 9.00031 0.562512C7.53589 0.570175 6.09911 0.961923 4.83347 1.69863C3.56783 2.43533 2.51763 3.49121 1.78776 4.76081C1.05788 6.0304 0.673884 7.46927 0.674113 8.93371C0.674342 10.3981 1.05879 11.8369 1.78906 13.1063L0.664062 17.4375L5.09656 16.3125C6.32195 16.9793 7.69526 17.3275 9.09031 17.325H9.00031C10.663 17.3358 12.2912 16.8512 13.6773 15.933C15.0635 15.0147 16.1447 13.7045 16.7832 12.1692C17.4216 10.634 17.5884 8.94343 17.2622 7.31305C16.936 5.68267 16.1316 4.18639 14.9516 3.01501ZM9.00031 15.885C7.75218 15.886 6.52726 15.5477 5.45656 14.9063L5.20906 14.76L2.57656 15.4463L3.27406 12.8813L3.11656 12.6225C2.21809 11.1756 1.882 9.44917 2.17207 7.77085C2.46213 6.09254 3.35817 4.57908 4.69017 3.51764C6.02218 2.45621 7.69746 1.92063 9.39818 2.01254C11.0989 2.10446 12.7067 2.81746 13.9166 4.01626C14.5652 4.65964 15.0792 5.42567 15.4288 6.26972C15.7784 7.11376 15.9565 8.01894 15.9528 8.93251C15.9498 10.7755 15.2164 12.5422 13.9132 13.8454C12.61 15.1486 10.8433 15.882 9.00031 15.885Z" fill="white" fill-opacity="0.91"/>
</g>
<defs>
<clipPath id="clip0_193_1160">
<rect width="18" height="18" fill="white"/>
</clipPath>
</defs>
</svg>
