<svg width="26" height="26" viewBox="0 0 26 26" fill="none" xmlns="http://www.w3.org/2000/svg">
<path fill-rule="evenodd" clip-rule="evenodd" d="M13 19.5C16.5898 19.5 19.5 16.5898 19.5 13C19.5 9.41015 16.5898 6.5 13 6.5C9.41015 6.5 6.5 9.41015 6.5 13C6.5 16.5898 9.41015 19.5 13 19.5ZM13 17.3333C15.3932 17.3333 17.3333 15.3932 17.3333 13C17.3333 10.6068 15.3932 8.66667 13 8.66667C10.6068 8.66667 8.66667 10.6068 8.66667 13C8.66667 15.3932 10.6068 17.3333 13 17.3333Z" fill="black"/>
<path d="M19.5003 5.4165C18.902 5.4165 18.417 5.90153 18.417 6.49984C18.417 7.09814 18.902 7.58317 19.5003 7.58317C20.0987 7.58317 20.5837 7.09814 20.5837 6.49984C20.5837 5.90153 20.0987 5.4165 19.5003 5.4165Z" fill="black"/>
<path fill-rule="evenodd" clip-rule="evenodd" d="M1.79146 4.63256C1.08301 6.02299 1.08301 7.84316 1.08301 11.4835V14.5168C1.08301 18.1572 1.08301 19.9774 1.79146 21.3677C2.41464 22.5908 3.40901 23.5852 4.63207 24.2083C6.0225 24.9168 7.84267 24.9168 11.483 24.9168H14.5163C18.1567 24.9168 19.9769 24.9168 21.3672 24.2083C22.5903 23.5852 23.5847 22.5908 24.2078 21.3677C24.9163 19.9774 24.9163 18.1572 24.9163 14.5168V11.4835C24.9163 7.84316 24.9163 6.02299 24.2078 4.63256C23.5847 3.4095 22.5903 2.41513 21.3672 1.79195C19.9769 1.0835 18.1567 1.0835 14.5163 1.0835H11.483C7.84267 1.0835 6.0225 1.0835 4.63207 1.79195C3.40901 2.41513 2.41464 3.4095 1.79146 4.63256ZM14.5163 3.25016H11.483C9.62708 3.25016 8.36545 3.25185 7.39026 3.33152C6.44035 3.40913 5.95458 3.5498 5.61572 3.72246C4.80035 4.13792 4.13743 4.80084 3.72198 5.61621C3.54931 5.95507 3.40864 6.44084 3.33103 7.39075C3.25136 8.36593 3.24967 9.62757 3.24967 11.4835V14.5168C3.24967 16.3728 3.25136 17.6343 3.33103 18.6096C3.40864 19.5595 3.54931 20.0453 3.72198 20.3842C4.13743 21.1995 4.80035 21.8624 5.61572 22.2778C5.95458 22.4505 6.44035 22.5912 7.39026 22.6688C8.36545 22.7484 9.62708 22.7502 11.483 22.7502H14.5163C16.3723 22.7502 17.6338 22.7484 18.6091 22.6688C19.559 22.5912 20.0448 22.4505 20.3837 22.2778C21.199 21.8624 21.8619 21.1995 22.2773 20.3842C22.45 20.0453 22.5907 19.5595 22.6683 18.6096C22.7479 17.6343 22.7497 16.3728 22.7497 14.5168V11.4835C22.7497 9.62757 22.7479 8.36593 22.6683 7.39075C22.5907 6.44084 22.45 5.95507 22.2773 5.61621C21.8619 4.80084 21.199 4.13792 20.3837 3.72246C20.0448 3.5498 19.559 3.40913 18.6091 3.33152C17.6338 3.25185 16.3723 3.25016 14.5163 3.25016Z" fill="black"/>
</svg>
