<svg width="26" height="24" viewBox="0 0 26 24" fill="none" xmlns="http://www.w3.org/2000/svg">
<g clip-path="url(#clip0_193_1528)">
<path d="M5.73789 7.62402H0.669922V23.7716H5.73789V7.62402Z" fill="black"/>
<path d="M3.09766 0C1.22891 0 0 1.20323 0 2.8008C0 4.36804 1.18828 5.6016 3.02656 5.6016H3.06719C4.97656 5.6016 6.16484 4.35793 6.15469 2.8008C6.11406 1.20323 4.96641 0 3.09766 0Z" fill="black"/>
<path d="M19.5816 7.47217C16.677 7.47217 14.859 9.04952 14.5238 10.1617V7.62384H8.82617C8.89727 8.96863 8.82617 23.7714 8.82617 23.7714H14.5238V15.0455C14.5238 14.55 14.5035 14.0647 14.6457 13.7209C15.0316 12.7502 15.8746 11.7391 17.3879 11.7391C19.3684 11.7391 20.2621 13.2356 20.2621 15.4196V23.7714H26.0105V14.7927C26.0105 9.79775 23.1871 7.47217 19.5816 7.47217Z" fill="black"/>
</g>
<defs>
<clipPath id="clip0_193_1528">
<rect width="26" height="23.7714" fill="white"/>
</clipPath>
</defs>
</svg>
